<svg width="160" height="160" viewBox="0 0 160 160" fill="none" xmlns="http://www.w3.org/2000/svg">
<rect width="160" height="160" fill="#191819"/>
<g clip-path="url(#clip0_203_326)">
<path d="M69.1036 69.4934V74.3729C68.962 74.2784 68.8046 74.2155 68.6629 74.1525C68.2379 73.9951 67.8287 73.9006 67.4509 73.8534C67.0731 73.8062 66.7583 73.7905 66.5222 73.7905C64.6963 73.7905 63.3269 74.3256 62.4297 75.3802C61.5325 76.4506 61.0918 77.8987 61.0918 79.7403C61.0918 80.9208 61.2335 81.9125 61.5325 82.6995C61.8316 83.4865 62.2566 84.1161 62.7918 84.5726C63.3269 85.0291 63.9723 85.3596 64.7121 85.5485C65.4519 85.7374 66.2704 85.8476 67.1518 85.8476C67.8129 85.8476 68.4583 85.7846 69.0879 85.6272C69.7175 85.4855 70.2841 85.2809 70.7878 85.0133C71.2915 84.7458 71.685 84.3994 71.9841 83.9902C72.2832 83.5809 72.4248 83.1088 72.4248 82.5579V69.4619H69.1036V69.4934ZM69.1036 82.2116C69.1036 82.4949 68.9462 82.7152 68.5999 82.8569C68.2694 82.9985 67.8287 83.0773 67.2777 83.0773C66.5852 83.0773 66.0185 82.9514 65.6093 82.6995C65.2 82.4477 64.901 82.0699 64.7278 81.5977C64.5547 81.1255 64.4602 80.5431 64.4602 79.8662C64.4602 79.032 64.5704 78.3867 64.7908 77.883C65.0111 77.395 65.3259 77.033 65.7509 76.8284C66.1759 76.6237 66.7111 76.5135 67.3565 76.5135C67.624 76.5135 67.9074 76.5608 68.2222 76.6395C68.5212 76.7182 68.8203 76.8284 69.1036 76.9858V82.2116Z" fill="#0B24FA"/>
<path d="M74.125 85.5328V74.3257H77.4777L77.4934 85.5328H74.125Z" fill="#0B24FA"/>
<path d="M89.0616 75.2388C88.6681 74.798 88.1329 74.4517 87.4246 74.1999C86.7163 73.9638 85.8978 73.8379 84.9534 73.8379C83.9775 73.8379 83.0961 73.9323 82.309 74.137C81.522 74.3258 80.8294 74.6564 80.2785 75.1286C79.7119 75.5851 79.2869 76.2462 78.9721 77.0804C78.6573 77.9146 78.5156 78.9535 78.5156 80.2127C78.5156 81.4562 78.7202 82.4793 79.1295 83.2978C79.5387 84.1163 80.1054 84.7302 80.8452 85.1552C81.585 85.5802 82.4822 85.8162 83.5053 85.8635C84.0562 85.8635 84.5599 85.8005 85.0164 85.6431C85.4571 85.5014 85.8506 85.2968 86.1811 85.045C86.2441 84.9978 86.3228 84.9348 86.3858 84.8876V85.5172C86.3858 85.9421 86.3228 86.3199 86.1654 86.6505C86.0237 86.981 85.7562 87.2486 85.3627 87.4375C84.9849 87.6421 84.434 87.7365 83.7414 87.7365C83.1905 87.7365 82.6396 87.6893 82.1201 87.5791C81.585 87.4847 81.097 87.343 80.672 87.2014C80.2313 87.0597 79.9008 86.9338 79.6804 86.8236V89.7671C80.0582 89.9717 80.5934 90.1448 81.3017 90.2865C82.01 90.4281 82.8599 90.4911 83.8673 90.4911C84.8117 90.4911 85.646 90.3967 86.3543 90.192C87.0626 89.9874 87.6765 89.6883 88.1802 89.2634C88.6839 88.8541 89.0616 88.3347 89.3135 87.7365C89.5653 87.1384 89.6912 86.4301 89.6912 85.6274V76.86C89.644 76.2461 89.4551 75.6952 89.0616 75.2388ZM85.4256 83.2348C85.0793 83.3293 84.7173 83.3765 84.3395 83.3765C83.584 83.3765 82.9859 83.0774 82.5136 82.4635C82.0572 81.8654 81.8211 81.0312 81.8211 80.0081C81.8211 79.3312 81.8998 78.7331 82.0729 78.1979C82.2461 77.6628 82.5294 77.2535 82.9229 76.9544C83.3164 76.6554 83.8516 76.5137 84.5284 76.5137C84.8432 76.5137 85.1423 76.5452 85.4099 76.6081C85.6775 76.6711 85.8978 76.7813 86.0867 76.9387C86.2756 77.0961 86.3543 77.348 86.3543 77.6628V82.8728C86.0867 83.0302 85.7719 83.1561 85.4256 83.2348Z" fill="#0B24FA"/>
<path d="M91.1719 85.5328V74.3257H94.5246L94.5403 85.5328H91.1719Z" fill="#0B24FA"/>
<path d="M101.324 85.7531C100.631 85.7531 99.9545 85.6587 99.3091 85.4541C98.6481 85.2652 98.0499 84.9346 97.5147 84.4939C96.9796 84.0531 96.5546 83.455 96.2398 82.7152C95.925 81.9754 95.7676 81.0468 95.7676 79.9449C95.7676 78.8116 95.925 77.8515 96.224 77.096C96.5231 76.3247 96.9481 75.7265 97.4675 75.2701C97.9869 74.8136 98.5851 74.4831 99.2462 74.2942C99.9073 74.1053 100.6 73.9951 101.308 73.9951C101.906 73.9951 102.504 74.0581 103.103 74.1682C103.701 74.2784 104.252 74.4516 104.771 74.6719V76.7811C104.267 76.5765 103.748 76.4034 103.244 76.2617C102.741 76.1201 102.205 76.0571 101.654 76.0571C100.49 76.0571 99.6082 76.3562 99.0101 76.9385C98.4119 77.5209 98.1286 78.4653 98.1286 79.7718C98.1286 81.1254 98.4119 82.1014 98.9786 82.731C99.5452 83.3448 100.458 83.6596 101.717 83.6596C102.268 83.6596 102.804 83.5967 103.339 83.4393C103.858 83.2976 104.346 83.1244 104.803 82.9041V85.0133C104.283 85.2494 103.732 85.4383 103.166 85.5485C102.583 85.7059 101.969 85.7531 101.324 85.7531Z" fill="#0B24FA"/>
<path d="M110.989 85.8633C109.163 85.8633 107.794 85.3439 106.897 84.3207C105.999 83.2976 105.543 81.818 105.543 79.8977C105.543 77.883 105.999 76.3876 106.944 75.4274C107.873 74.4673 109.21 73.9951 110.973 73.9951C112.201 73.9951 113.224 74.2312 114.027 74.6877C114.83 75.1442 115.444 75.821 115.837 76.7025C116.231 77.5839 116.435 78.6542 116.435 79.9134C116.435 81.818 115.963 83.2819 115.019 84.3207C114.074 85.3439 112.721 85.8633 110.989 85.8633ZM110.973 83.8643C111.729 83.8643 112.327 83.6911 112.784 83.3606C113.24 83.03 113.571 82.5578 113.775 81.9597C113.98 81.3616 114.074 80.669 114.074 79.8977C114.074 79.032 113.964 78.308 113.759 77.7256C113.555 77.1432 113.208 76.7182 112.752 76.4034C112.296 76.1043 111.697 75.9469 110.973 75.9469C110.218 75.9469 109.62 76.1043 109.179 76.4191C108.723 76.7339 108.408 77.1904 108.219 77.7728C108.03 78.3709 107.92 79.0635 107.92 79.8662C107.92 81.1097 108.156 82.0856 108.612 82.7939C109.069 83.518 109.856 83.8643 110.973 83.8643Z" fill="#0B24FA"/>
<path d="M117.805 85.5327V75.2857C117.994 75.1598 118.356 75.0024 118.891 74.7978C119.41 74.5931 120.04 74.4042 120.748 74.2468C121.472 74.0894 122.196 74.0107 122.92 74.0107C123.298 74.0107 123.597 74.0422 123.849 74.1052C124.085 74.1681 124.29 74.2311 124.463 74.3098V76.1987C124.132 76.1514 123.77 76.12 123.393 76.1042C123.015 76.0885 122.637 76.0885 122.259 76.1042C121.881 76.12 121.519 76.1514 121.157 76.1987C120.795 76.2459 120.465 76.2931 120.166 76.3403V85.5484H117.805V85.5327Z" fill="#0B24FA"/>
<path d="M131.451 83.691C131.011 83.7855 130.523 83.8327 130.035 83.8327C128.902 83.8327 128.036 83.5021 127.453 82.8568C126.95 82.2901 126.651 81.4874 126.588 80.4485H134.505C134.521 79.1578 134.363 78.0403 134.017 77.0644C133.671 76.1042 133.136 75.3487 132.396 74.8135C131.656 74.2783 130.68 74.0107 129.468 74.0107C127.8 74.0107 126.509 74.5145 125.596 75.5218C124.683 76.5292 124.211 78.0245 124.211 79.9921C124.211 81.267 124.447 82.3374 124.888 83.2188C125.344 84.1003 125.974 84.7614 126.792 85.2178C127.611 85.6743 128.571 85.9104 129.689 85.9104C130.507 85.9104 131.247 85.8475 131.908 85.7058C132.569 85.5642 133.167 85.391 133.702 85.1549V82.9513C133.403 83.0929 133.073 83.2503 132.711 83.392C132.317 83.4864 131.908 83.5966 131.451 83.691ZM126.903 77.5366C127.123 76.9542 127.438 76.5292 127.847 76.2773C128.256 76.0255 128.776 75.8996 129.389 75.8996C130.302 75.8996 130.979 76.1672 131.42 76.7024C131.782 77.1431 132.018 77.8042 132.113 78.6699H126.651C126.714 78.2449 126.792 77.8671 126.903 77.5366Z" fill="#0B24FA"/>
<path d="M41.0079 64C32.1776 64 25 71.1776 25 80.0079C25 80.0866 25 80.181 25 80.2597C25 80.3384 25 80.4329 25 80.5116C25 81.5189 25.1259 82.5106 25.3778 83.4393C26.9518 90.6168 33.3581 96 41.0079 96C49.8382 96 57.0158 88.8225 57.0158 79.9921C57.0158 71.1618 49.8382 64 41.0079 64ZM45.0846 80.4014C45.0846 82.9198 43.0384 84.9661 40.5199 84.9661C38.0015 84.9661 35.9552 82.9198 35.9552 80.4014C35.9552 77.8829 38.0015 75.8367 40.5199 75.8367C43.0384 75.8524 45.0846 77.8987 45.0846 80.4014ZM40.5199 72.9877C36.4275 72.9877 33.1062 76.3089 33.1062 80.4014C33.1062 84.4938 36.4275 87.8151 40.5199 87.8151C40.8505 87.8151 41.181 87.7836 41.4958 87.7521C40.0949 88.6965 38.4107 89.2632 36.5849 89.2632C32.5239 89.2632 29.1082 86.4929 28.1166 82.7309C27.9434 81.9282 27.849 81.1097 27.8333 80.2597C27.9749 75.5534 31.8313 71.76 36.5691 71.76C38.2218 71.76 39.7487 72.2164 41.0708 73.0192C40.9134 73.0034 40.7246 72.9877 40.5199 72.9877ZM41.0079 93.1668C39.1663 93.1668 37.4034 92.789 35.8136 92.0964C36.0812 92.1122 36.333 92.1279 36.6006 92.1279C42.9912 92.1279 48.2012 86.9179 48.2012 80.5273C48.2012 74.1368 42.9912 68.9267 36.6006 68.9267C35.4201 68.9267 34.2868 69.0998 33.2164 69.4304C35.4043 67.8249 38.0959 66.8647 41.0079 66.8647C48.2642 66.8647 54.1668 72.7673 54.1668 80.0236C54.151 87.2641 48.2642 93.1668 41.0079 93.1668Z" fill="#0B24FA"/>
<path d="M92.8561 72.8465C93.7863 72.8465 94.5403 72.0924 94.5403 71.1622C94.5403 70.2321 93.7863 69.478 92.8561 69.478C91.9259 69.478 91.1719 70.2321 91.1719 71.1622C91.1719 72.0924 91.9259 72.8465 92.8561 72.8465Z" fill="#0B24FA"/>
<path d="M75.8112 72.8465C76.7413 72.8465 77.4954 72.0924 77.4954 71.1622C77.4954 70.2321 76.7413 69.478 75.8112 69.478C74.881 69.478 74.127 70.2321 74.127 71.1622C74.127 72.0924 74.881 72.8465 75.8112 72.8465Z" fill="#0B24FA"/>
</g>
<defs>
<clipPath id="clip0_203_326">
<rect width="110" height="32" fill="white" transform="translate(25 64)"/>
</clipPath>
</defs>
</svg>
