<svg width="32" height="32" viewBox="0 0 32 32" fill="none" xmlns="http://www.w3.org/2000/svg">
<rect width="32" height="32" rx="16" fill="#F2F4F7"/>
<g clip-path="url(#clip0_15_126)">
<g clip-path="url(#clip1_15_126)">
<path d="M16.1965 16.9626C16.9231 16.9626 17.5137 16.3769 17.5137 15.6528C17.5137 14.9287 16.9256 14.3429 16.1965 14.3429C15.4675 14.3429 14.8793 14.9287 14.8793 15.6528C14.8793 16.3769 15.4675 16.9626 16.1965 16.9626Z" fill="black"/>
<path d="M9.84756 16.7673C10.1219 16.4807 10.2578 16.1149 10.2578 15.6701C10.2578 15.2252 10.1219 14.8595 9.84756 14.5728C9.57324 14.2861 9.21736 14.1428 8.77499 14.1428H8.22141V17.1974H8.77499C9.21736 17.1974 9.57324 17.054 9.84756 16.7673Z" fill="black"/>
<path d="M19.7231 14.1823V12.3263H24.8685C23.4203 8.84664 19.9752 6.39999 15.9543 6.39999C11.9334 6.39999 8.49079 8.84664 7.04258 12.3263H8.96035C9.9662 12.3263 10.7768 12.6352 11.3897 13.2555C12.0051 13.8734 12.309 14.6791 12.309 15.6701C12.309 16.6611 12.0026 17.4667 11.3897 18.0846C10.7768 18.7024 9.9662 19.0138 8.96035 19.0138H6.79544C8.06572 22.8395 11.6863 25.6 15.9543 25.6C18.0648 25.6 20.0123 24.9253 21.6014 23.7811V14.1823H19.7231ZM18.5295 18.0203C17.8993 18.6654 17.1257 18.9891 16.2064 18.9891C15.287 18.9891 14.5135 18.6654 13.8833 18.0203C13.2531 17.3753 12.9392 16.5869 12.9392 15.6528C12.9392 14.7186 13.2531 13.9302 13.8833 13.2852C14.5135 12.6402 15.287 12.3164 16.2064 12.3164C17.1257 12.3164 17.8993 12.6402 18.5295 13.2852C19.1597 13.9302 19.4735 14.7186 19.4735 15.6528C19.4735 16.5869 19.1597 17.3753 18.5295 18.0203Z" fill="black"/>
<path d="M25.427 14.1823H23.6353V21.804C24.866 20.1927 25.6 18.181 25.6 15.9988C25.6 15.3785 25.5407 14.7705 25.427 14.1823Z" fill="black"/>
</g>
</g>
<defs>
<clipPath id="clip0_15_126">
<rect width="19.2" height="19.2" fill="white" transform="translate(6.39999 6.39999)"/>
</clipPath>
<clipPath id="clip1_15_126">
<rect width="18.8046" height="19.2" fill="white" transform="translate(6.79544 6.39999)"/>
</clipPath>
</defs>
</svg>
